<?xml version="1.0" standalone="no"?>
<!DOCTYPE svg PUBLIC "-//W3C//DTD SVG 1.1//EN" "http://www.w3.org/Graphics/SVG/1.1/DTD/svg11.dtd" >
<svg xmlns="http://www.w3.org/2000/svg">
<metadata>Generated by IcoMoon</metadata>
<defs>
<font id="icomoon" horiz-adv-x="1024">
<font-face units-per-em="1024" ascent="960" descent="-64" />
<missing-glyph horiz-adv-x="1024" />
<glyph unicode="&#x20;" horiz-adv-x="512" d="" />
<glyph unicode="&#xe900;" glyph-name="Circuit" d="M724.633 167.456l68.399-68.367c-65.145-52.538-145.306-87.204-233.034-96.548l0.006 96.705c61.309 8.36 117.595 32.507 164.628 68.21zM299.338 167.478c47.039-35.715 103.335-59.87 164.656-68.232l0.006-96.705c-87.727 9.344-167.889 44.010-233.034 96.548zM66.541 400.001l96.705-0.006c8.36-61.309 32.507-117.595 68.21-164.628l-68.367-68.399c-52.538 65.145-87.204 145.306-96.548 233.034zM957.459 400.001c-9.344-87.727-44.010-167.889-96.548-233.034l-68.367 68.399c35.703 47.033 59.85 103.319 68.21 164.628zM860.911 729.033c52.538-65.145 87.204-145.306 96.548-233.034l-96.705 0.006c-8.362 61.321-32.517 117.618-68.232 164.656zM163.089 729.033l68.389-68.371c-35.715-47.039-59.87-103.335-68.232-164.656l-96.705-0.006c9.344 87.727 44.010 167.889 96.548 233.034zM464.001 893.459l-0.006-96.705c-61.321-8.362-117.618-32.517-164.656-68.232l-68.371 68.389c65.145 52.538 145.306 87.204 233.034 96.548zM559.999 893.459c87.727-9.344 167.889-44.010 233.034-96.548l-68.399-68.367c-47.033 35.703-103.319 59.85-164.628 68.21z" />
<glyph unicode="&#xe901;" glyph-name="Coin" d="M512 31.926c-229.791 0-416.074 186.283-416.074 416.074s186.283 416.074 416.074 416.074c229.791 0 416.074-186.283 416.074-416.074s-186.283-416.074-416.074-416.074zM512 127.926c176.772 0 320.074 143.302 320.074 320.074s-143.302 320.074-320.074 320.074c-176.772 0-320.074-143.302-320.074-320.074s143.302-320.074 320.074-320.074zM512 224c-123.712 0-224 100.288-224 224s100.288 224 224 224c123.712 0 224-100.288 224-224s-100.288-224-224-224zM512 274.272c95.947 0 173.728 77.781 173.728 173.728s-77.781 173.728-173.728 173.728c-95.947 0-173.728-77.781-173.728-173.728s77.781-173.728 173.728-173.728z" />
<glyph unicode="&#xe902;" glyph-name="Competition" d="M736 416h256v-320h-960v416h256v192h448v-288zM128 192h768v128h-256v288h-256v-192h-256v-224z" />
<glyph unicode="&#xe903;" glyph-name="Dashboard" d="M217.6 256h44.8c12.8 0 25.6 12.8 25.6 25.6v140.8c0 12.8-12.8 25.6-25.6 25.6h-44.8c-12.768 0-25.6-12.8-25.6-25.6v-140.8c0-12.8 12.832-25.6 25.6-25.6zM992 160h-896v640c0 17.696-14.304 32-32 32h-32c-17.696 0-32-14.304-32-32v-672c0-35.328 28.672-64 64-64h928c17.696 0 32 14.304 32 32v32c0 17.696-14.304 32-32 32zM601.6 256h44.8c12.8 0 25.6 12.8 25.6 25.6v268.8c0 12.8-12.8 25.6-25.6 25.6h-44.8c-12.768 0-25.6-12.8-25.6-25.6v-268.8c0-12.8 12.832-25.6 25.6-25.6zM409.6 256h44.8c12.8 0 25.6 12.8 25.6 25.6v396.8c0 12.8-12.8 25.6-25.6 25.6h-44.8c-12.768 0-25.6-12.8-25.6-25.6v-396.8c0-12.8 12.832-25.6 25.6-25.6zM793.6 256h44.8c12.8 0 25.6 12.8 25.6 25.6v460.8c0 12.8-12.8 25.6-25.6 25.6h-44.8c-12.768 0-25.6-12.8-25.6-25.6v-460.8c0-12.8 12.832-25.6 25.6-25.6z" />
<glyph unicode="&#xe904;" glyph-name="Delete" d="M259.882 768l237.588-237.588 237.588 237.588 67.882-67.882-237.588-237.588 237.588-237.588-67.882-67.882-237.611 237.611-237.565-237.611-67.882 67.882 237.565 237.611-237.565 237.565z" />
<glyph unicode="&#xe905;" glyph-name="ExpPoints" d="M832 832v-582.737l-320-217.263-320 217.263v582.737h640zM736 736h-448v-434.344l224-155.509 224 155.509v434.344zM618.643 441.378l26.714-39.88-133.357-89.33-133.357 89.33 26.714 39.88 106.643-71.436 106.643 71.436zM618.643 615.831l26.714-39.88-133.357-89.33-133.357 89.33 26.714 39.88 106.643-71.436 106.643 71.436z" />
<glyph unicode="&#xe906;" glyph-name="FitnessCircuit" d="M418.543 841.503l168.974-122.892c4.209-1.042 8.347-2.677 12.298-4.935 7.163-4.093 12.871-9.752 16.94-16.3l166.854-121.376h128.391c26.51 0 48-21.49 48-48 0-24.95-19.036-45.454-43.377-47.78l-4.623-0.22h-159.609l-163.079 118.592-79.955-139.964 217.253-186.217-54.61-240.411c-7.283-25.49-33.85-40.249-59.34-32.967-23.99 6.854-38.476 30.791-34.025 54.835l1.059 4.505 37.697 181.215-230.747 197.783 124.557 218.052-97.743 71.073-132.762-79.657c-22.732-13.639-52.216-6.268-65.855 16.464-12.837 21.395-7.062 48.771 12.613 63.289l3.851 2.567 187.238 112.343zM357.374 343.938c22.057 14.705 51.859 8.745 66.564-13.313s8.745-51.859-13.313-66.564v0l-108.092-72.062h-190.533c-26.51 0-48 21.49-48 48s21.49 48 48 48v0h161.467zM672 928c53.019 0 96-42.981 96-96s-42.981-96-96-96c-53.019 0-96 42.981-96 96s42.981 96 96 96z" />
<glyph unicode="&#xe907;" glyph-name="Gamification" d="M780.634 864c25.009 0 45.827-19.202 47.844-44.13 1.423-17.586 2.414-34.945 2.975-52.076l138.666-0.006c23.039 0 42.829-16.369 47.149-39 18.718-98.055-1.451-178.73-62.251-235.954-45.138-42.483-107.267-66.922-185.436-74.583l4.822 11.136c-44.604-106.037-110.969-180.713-198.395-221.607l-0.023-143.781h145.421c24.22 0 44.124-19.036 46.382-43.377l0.213-4.623c0-26.51-20.861-48-46.595-48v0h-386.809c-25.734 0-46.595 21.49-46.595 48s20.861 48 46.595 48v0h145.388l0.005 144.704c-83.027 40.718-147.449 111.065-192.719 209.151-79.61 6.567-143.104 29.007-191.271 62.145-55.991 70.379-75.728 151.013-64 256 10.817 15.639 30.183 32 64 32l128.749-0.016c0.661 17.144 1.76 34.537 3.296 52.179 2.159 24.802 22.923 43.837 47.819 43.837h504.769zM735.389 768h-414.562c-4.877-114.514 11.748-214.625 49.479-300.736 37.941-86.591 90.548-144.303 158.495-175.464 68.059 29.617 120.17 86.994 157.11 174.811 4.697 11.166 9.065 22.532 13.103 34.098l0.218 11.067c1.189-0.028 2.373-0.052 3.552-0.072 25.082 76.733 36.022 162.082 32.604 256.296zM927.819 671.789l-97.908-0.012c-3.552-52.625-11.645-102.837-24.302-150.605l4.197 1.022c33.55 8.559 59.924 22.205 79.414 40.548 26.034 24.503 39.227 57.084 38.854 100.267l-0.256 8.779zM225.789 671.969l-97.789 0.031c-4.158-47.511 8.72-82.821 32-96 22.839-27.148 52.324-44.672 89.912-54.429-12.757 47.425-20.783 97.571-24.123 150.398z" />
<glyph unicode="&#xe908;" glyph-name="Gems" d="M825.689 864l194.257-291.386-463.892-549.766-28.054-38.848-28.074 38.848-463.872 549.766 194.257 291.386h595.378zM670.486 544h-285.024l142.538-339.881 142.486 339.881zM870.198 544h-95.584l-94.432-225.184 190.016 225.184zM281.334 544h-95.552l189.984-225.152-94.432 225.152zM362.326 768.032l-80.637-0.032-85.347-128h101.984l64 128.032zM586.294 768.032h-116.64l-64.032-128.032h244.704l-64.032 128.032zM774.311 768l-80.689 0.032 64-128.032h102.016l-85.327 128z" />
<glyph unicode="&#xe909;" glyph-name="HealthInfo" d="M512 769.356c110.6 112.6 289.2 127.2 404.8 30 150.6-126.8 128.2-333.2 21.2-442.6l-350.8-357.4c-20-20.4-46.6-31.6-75.2-31.6-28.4 0-55.2 11.4-75.2 31.8l-350.8 357.4c-107.2 109.4-129.2 315.8 21.2 442.4 115.6 97.4 294.2 82.6 404.8-30zM371.279 469.19l-52.371-115.217-95.42 0.011 281.712-287.028c4.8-4.8 8.8-4.8 13.6 0l281.712 287.028-124.367-0.011-37.674 65.929-129.602-210.603-137.59 259.891zM582 704.756l-70-71.4-70 71.4c-75.2 76.6-195.2 86.4-273 21-91.608-77.115-89.418-197.928-35.673-275.805l123.765 0.022 107.629 236.783 150.41-284.109 126.398 205.397 90.326-158.071 158.77-0.008c53.278 77.59 55.741 198.928-35.625 275.99-77.4 65.2-197.4 55.8-273-21.2z" />
<glyph unicode="&#xe90a;" glyph-name="Info" d="M512 960c282.75 0 512-229.333 512-512 0-282.833-229.25-512-512-512s-512 229.167-512 512c0 282.667 229.25 512 512 512zM512 864c-229.734 0-416-186.333-416-416 0-229.801 186.266-416 416-416s416 186.199 416 416c0 229.667-186.266 416-416 416zM512 736c47.889 0 86.71-38.821 86.71-86.71s-38.821-86.71-86.71-86.71c-47.889 0-86.71 38.821-86.71 86.71s38.821 86.71 86.71 86.71zM639.254 216c0-13.254-11.093-24-24.774-24h-205.308c-13.682 0-24.774 10.746-24.774 24v48c0 13.254 11.093 24 24.774 24h38.828v128h-26.839c-13.682 0-24.774 10.746-24.774 24v48c0 13.254 11.093 24 24.774 24h132.129c13.682 0 22.71-10.746 22.71-24v-200h38.48c13.682 0 24.774-10.746 24.774-24v-48z" />
<glyph unicode="&#xe90b;" glyph-name="List" d="M128 768h768v-96h-768v96zM128 576h768v-96h-768v96zM128 384h768v-96h-768v96zM128 192h768v-96h-768v96z" />
<glyph unicode="&#xe90c;" glyph-name="Logout" d="M543.821 820.198l0.179-4.217v-736c0-24.95-19.036-45.454-43.377-47.78l-4.623-0.22h-448c-26.51 0-48 21.49-48 48 0 24.95 19.036 45.454 43.377 47.78l4.623 0.22 112 0.005v591.995c0 19.185 11.399 36.371 28.721 43.959l4.1 1.577 288 96c29.73 9.91 60.39-10.826 63-41.32zM656 735.982h160c24.95 0 45.454-19.036 47.78-43.377l0.22-4.623v-560h112c26.51 0 48-21.49 48-48 0-24.95-19.036-45.454-43.377-47.78l-4.623-0.22h-160c-24.95 0-45.454 19.036-47.78 43.377l-0.22 4.623v560h-112c-26.51 0-48 21.49-48 48 0 24.95 19.036 45.454 43.377 47.78l4.623 0.22h160zM448 749.385l-192-64v-557.404h192v256.005l-48-0.005c-24.95 0-45.454 19.036-47.78 43.377l-0.22 4.623c0 26.51 21.49 48 48 48v0l48 0.005v269.399z" />
<glyph unicode="&#xe90d;" glyph-name="Manual" d="M331.193 293.010l-66.153 57.090c-35.117 30.302-77.846-24.014-42.713-54.333l267.553-230.881c8.374-7.224 19.579-9.992 29.975-7.4l321.265 80.1c15.302 3.815 25.76 18.005 25.431 34.507l-4.551 228.823c-0.056 2.78-0.427 5.565-1.102 8.272l-38.103 152.822c-11.413 45.774-77.295 29.272-65.9-16.431 4.008-16.075-5.65-32.327-21.574-36.297l-12.356-3.081c-15.924-3.97-32.081 5.845-36.089 21.92l-9.526 38.205c-11.413 45.774-77.295 29.27-65.9-16.431l9.526-38.205c4.008-16.075-5.65-32.327-21.574-36.297l-12.36-3.082c-15.924-3.97-32.081 5.845-36.089 21.92l-15.876 63.676c-11.413 45.774-77.295 29.27-65.9-16.431l15.876-63.676c4.008-16.075-5.65-32.327-21.574-36.297l-12.356-3.081c-15.924-3.97-32.081 5.845-36.089 21.92l-79.381 318.378c-11.413 45.774-77.295 29.27-65.9-16.431l109.542-439.349c7.062-28.325-26.166-48.861-48.102-29.932zM566.439 656.041c43.174 35.59 106.23 37.443 152.59 1.14 70.288 49.668 169.015 11.618 190.263-73.606l38.103-152.822c2.321-9.309 3.588-18.851 3.783-28.437l4.552-228.819c1.16-58.257-37.33-109.4-92.835-123.239l-321.267-80.101c-38.308-9.551-79.266 0.353-109.561 26.493l-267.53 230.889c-51.805 44.706-59.046 123.168-16.035 176.009 27.562 33.86 68.611 48.57 107.848 44.034l-73.089 293.143c-16.758 67.212 23.192 135.253 89.054 151.675s133.079-24.9 149.837-92.112l33.401-133.963c35.487 14.371 76.512 11.459 110.887-10.284z" />
<glyph unicode="&#xe90e;" glyph-name="Monster" d="M667.587 133.792c-5.024-2.912-10.208-5.28-15.36-7.872-16.992 23.616-27.392 52.32-27.392 83.616 0 79.552 64.48 144 144 144 15.456 0 30.24-2.688 44.224-7.168-13.504-86.208-64.192-165.664-145.472-212.576zM298.499 190.528c61.184 36.192 102.336 102.752 102.336 179.008 0 113.888-91.584 206.272-205.088 207.84 9.568 92.864 41.856 172.256 97.696 204.48 36.736 21.216 86.144 23.232 139.872 11.456-0.096-2.624-0.48-5.152-0.48-7.776 0-114.88 93.12-208 208-208 34.208 0 66.528 8.32 95.040 22.976 15.36-18.688 29.184-38.016 40.64-57.824 23.872-41.376 36.48-86.080 39.36-130.72-15.136 3.52-30.848 5.568-47.040 5.568-114.88 0-208-93.12-208-208 0-39.040 10.752-75.52 29.472-106.752-105.184-26.112-217.632 7.2-291.808 87.744zM192.835 513.536c79.52 0 144-64.448 144-144 0-55.2-31.456-102.624-77.088-126.784-0.224 0.416-0.512 0.768-0.736 1.152-43.552 75.488-65.728 175.424-66.432 269.6 0.096 0 0.16 0.032 0.256 0.032zM689.123 650.144c-15.136-5.408-31.328-8.608-48.288-8.608-75.296 0-136.416 57.984-142.752 131.648 66.752-26.4 134.912-70.048 191.040-123.040zM906.371 322.816c1.728 9.536 2.88 19.168 3.872 28.832 0.352 3.072 0.992 6.144 1.248 9.248-0.032 0.064-0.096 0.096-0.128 0.128 6.24 77.344-9.92 157.344-51.712 229.664-14.336 24.896-31.584 49.056-50.752 72.32 0.032 0.064 0.096 0.128 0.128 0.16-0.48 0.576-1.056 1.088-1.536 1.664-12.448 14.944-25.824 29.44-39.84 43.456-1.088 1.12-2.048 2.336-3.168 3.456-0.064-0.096-0.128-0.192-0.192-0.288-69.088 68.16-155.2 123.744-242.176 155.584l0.16 0.224c-11.456 4.224-22.912 7.904-34.368 11.264-2.432 0.704-4.864 1.248-7.296 1.92-7.296 2.016-14.592 4.064-21.856 5.728-0.096-0.16-0.16-0.32-0.224-0.48-78.016 17.6-153.184 13.888-213.088-20.704-93.088-53.728-140.736-176.064-148.128-310.656-0.128-0.064-0.288-0.096-0.416-0.192-0.416-7.616-0.448-15.328-0.608-23.040-0.064-3.872-0.256-7.712-0.29-11.584-0.030-14.112 0.258-28.256 1.058-42.432 0.032 0.032 0.096 0.032 0.128 0.064 4.928-86.56 25.76-173.568 61.248-247.456-0.128 0.032-0.256 0.032-0.384 0.064 5.568-11.616 11.52-22.944 17.824-33.856 100.256-173.632 311.904-242.304 492.032-168.224l0.448-0.288c1.504 0.608 2.944 1.568 4.48 2.176 14.464 6.208 28.768 12.992 42.752 21.056 9.408 5.44 18.496 11.2 27.264 17.248-0.16 0.032-0.288 0.096-0.416 0.096 75.68 52.224 127.872 127.072 152.992 210.144 0.096-0.16 0.224-0.288 0.288-0.448 0.576 1.952 0.896 4 1.472 5.984 2.272 7.936 4.16 16 5.92 24.064 1.12 5.056 2.368 10.016 3.264 15.104z" />
<glyph unicode="&#xe90f;" glyph-name="Points" d="M512 864.074c229.791 0 416.074-186.283 416.074-416.074s-186.283-416.074-416.074-416.074c-229.791 0-416.074 186.283-416.074 416.074s186.283 416.074 416.074 416.074zM512 768.074c-176.772 0-320.074-143.302-320.074-320.074s143.302-320.074 320.074-320.074c176.772 0 320.074 143.302 320.074 320.074s-143.302 320.074-320.074 320.074zM512 672c123.712 0 224-100.288 224-224s-100.288-224-224-224c-123.712 0-224 100.288-224 224s100.288 224 224 224zM512 621.728c-95.947 0-173.728-77.781-173.728-173.728s77.781-173.728 173.728-173.728c95.947 0 173.728 77.781 173.728 173.728s-77.781 173.728-173.728 173.728z" />
<glyph unicode="&#xe910;" glyph-name="Profile" d="M691.2 352c-57.4 0-85-32-179.2-32s-121.6 32-179.2 32c-148.4 0-268.8-120.4-268.8-268.8v-51.2c0-53 43-96 96-96h704c53 0 96 43 96 96v51.2c0 148.4-120.4 268.8-268.8 268.8zM864 32h-704v51.2c0 95.2 77.6 172.8 172.8 172.8 29.2 0 76.6-32 179.2-32 103.4 0 149.8 32 179.2 32 95.2 0 172.8-77.6 172.8-172.8v-51.2zM512 384c159 0 288 129 288 288s-129 288-288 288c-159 0-288-129-288-288s129-288 288-288zM512 864c105.8 0 192-86.2 192-192s-86.2-192-192-192c-105.8 0-192 86.2-192 192s86.2 192 192 192z" />
<glyph unicode="&#xe911;" glyph-name="Progress" d="M352 120.727v-184.727h-96v960l704-416-608-359.273zM352 232.235l419.295 247.765-419.295 247.765v-495.53z" />
<glyph unicode="&#xe912;" glyph-name="Questionaire" d="M718.059 881.941c18.745 18.745 49.137 18.745 67.882 0v0l160-160c18.745-18.745 18.745-49.137 0-67.882v0l-608-608c-7.074-7.074-16.182-11.761-26.050-13.406v0l-192-32c-32.487-5.415-60.653 22.751-55.238 55.238v0l32 192c1.645 9.868 6.332 18.976 13.406 26.050v0zM639.982 668.128l-451.164-451.192-18.424-110.541 110.541 18.424 451.174 451.182-92.128 92.128zM752 780.118l-44.146-44.118 92.128-92.128 44.136 44.128-92.118 92.118z" />
<glyph unicode="&#xe913;" glyph-name="Stars" d="M512 928l137.27-342.902 374.73-22.156-289.893-234.081 94.327-356.595-316.433 198.232-316.433-198.232 94.327 356.595-289.893 234.081 374.73 22.156 137.27 342.902zM441.213 492.861l-187.857-11.107 145.257-117.291-48.103-181.849 161.49 101.167 161.49-101.167-48.103 181.849 145.257 117.291-187.857 11.107-70.787 176.827-70.787-176.827z" />
<glyph unicode="&#xe914;" glyph-name="System" d="M160 864h704c53.019 0 96-42.981 96-96v-608c0-53.019-42.981-96-96-96h-704c-53.019 0-96 42.981-96 96v608c0 53.019 42.981 96 96 96zM160 576v-416h704v416h-704z" />
<glyph unicode="&#xe915;" glyph-name="Teamwork" d="M1024 352h-224l-216.96 212.4 20 18.050c10.4 9.5 11.2 25.492 1.6 35.783l-17.44 18.525c-9.6 10.292-25.76 10.923-36.16 1.583l-88.32-80.118c-15.2-13.773-41.12-14.882-55.36 0-14.88 15.677-13.6 39.743 1.92 53.677l86.72 76.1c11.84 10.768 32 16 48 16h112c3.36 0 45.76 2.375 48 0l64-96h256v-256zM672 240c-4.48-5.382-32-32-48-16l-32 32c-27.205-42.945-53.872-64.28-80-64.003-39.193 0.421-32 0-76.96 65.678-67.040-65.678-115.040-49.675-147.040-17.675l-112 112h-176v256h208l96 96c2.133 0.846 34.133 0.846 96 0l-42.72-36.050c-47.040-42.592-49.76-114.477-7.040-160.393 23.68-25.65 97.92-65.233 162.4-6.965l13.12 11.875 162.24-176.467c3.627-2.956 8.96-18.956 16-48l-32-48zM832 704l-77.44 70.192c-16.856 16.532-39.627 25.808-63.36 25.808h-362.88c-23.68 0-46.56-9.342-63.36-25.808l-72.96-70.192h-192v-448h144l135.36-120.965c49.44-39.743 118.080-40.692 168.96-6.017 20-17.102 55.52-33.018 79.68-33.018 29.12 0 74.56 19.56 96.16 45.843 35.36-13.777 111.84 34.157 111.84 82.157l64 32h224v448h-192z" />
<glyph unicode="&#xe916;" glyph-name="Tiles" d="M320 256v-192h-192v192h192zM608 256v-192h-192v192h192zM896 256v-192h-192v192h192zM320 544v-192h-192v192h192zM608 544v-192h-192v192h192zM896 544v-192h-192v192h192zM320 832v-192h-192v192h192zM608 832v-192h-192v192h192zM896 832v-192h-192v192h192z" />
<glyph unicode="&#xe917;" glyph-name="Unlockables" d="M800 832c128 0 192-64 192-192v-608h-960v608c0 128 53.333 192 160 192h608zM128 128h768v320h-224v-160h-320v160h-224v-320zM576 448h-128v-64h128v64zM800 736h-608c-49.381 0-64-17.542-64-96v-96h768v96c0 74.981-21.019 96-96 96z" />
<glyph unicode="&#xe918;" glyph-name="Wearable" d="M704 928c35.346 0 64-28.654 64-64l0.017-109.321c56.5-24.694 95.983-81.076 95.983-146.679v-320c0-65.604-39.483-121.985-95.983-146.679l-0.017-109.321c0-35.346-28.654-64-64-64h-384c-35.346 0-64 28.654-64 64l0.015 109.307c-56.517 24.686-96.015 81.077-96.015 146.693v320c0 65.616 39.498 122.007 96.015 146.693l-0.015 109.307c0 35.346 28.654 64 64 64h384zM672 128h-320v-64h320v64zM704 672h-384c-35.346 0-64-28.654-64-64v-320c0-35.346 28.654-64 64-64h384c35.346 0 64 28.654 64 64v320c0 35.346-28.654 64-64 64zM512 574.208c41.475 40.203 108.45 45.416 151.8 10.711 56.475-45.273 48.075-118.968 7.95-158.028l-131.55-127.608c-7.5-7.284-17.475-11.283-28.2-11.283-10.65 0-20.7 4.070-28.2 11.354l-131.55 127.608c-40.2 39.061-48.45 112.755 7.95 157.957 43.35 34.776 110.325 29.492 151.8-10.711zM672 832h-320v-64h320v64z" />
<glyph unicode="&#xe919;" glyph-name="PlayerType-Disruptor" d="M49.423 912.241l427.013-101.67 313.403-432.826 54.178 54.155c17.574 17.574 45.384 18.672 64.237 3.295l3.646-3.295c17.574-17.574 18.672-45.384 3.295-64.237l-3.295-3.646-76.045-76.001 144.25-144.241-27.314-136.569-136.569-27.314-144.24 144.251-11.795-11.839-64.895-64.895c-18.745-18.745-49.137-18.745-67.882 0-17.574 17.574-18.672 45.384-3.295 64.237l3.295 3.646 55.933 55.956-450.652 345.471-67.655 321.335c-0.083 0.396-0.162 0.792-0.235 1.19l-15.377 72.996zM768 220.118l-13.777-13.733-0.282-0.326-14.058-14.059 107.894-107.894 23.431 4.686 4.686 23.431-107.894 107.894zM192.239 699.857l27.070-128.577 432.503-331.586 0.299 0.291-459.872 459.872zM265.871 762.033l454.144-454.144 1.101 1.11-301.553 416.43-153.693 36.604z" />
<glyph unicode="&#xe91a;" glyph-name="PlayerType-FreeSpirit" d="M134.286 260.933l62.040-62.057 75.674 71.771 67.783-67.886-75.606-71.942 62.109-61.886c25.869-25.886 7.526-70.288-29.143-70.288h-192c-22.666-0.054-41.086 18.273-41.143 40.939v192.206c0 36.686 44.383 55.029 70.286 29.143zM787.886 277.046l70.050-77.497 61.886 62.109c25.886 25.869 70.288 7.526 70.288-29.143v-192c0.055-22.666-18.273-41.086-40.939-41.143h-192.206c-36.686 0-55.029 44.383-29.143 70.286l62.057 62.040-69.879 77.566 67.886 67.783zM762.933 581.466c11.158-22.316 3.301-49.169-17.43-62.135l-4.036-2.264-165.498-82.731v-86.976l90.965-181.894c11.158-22.316 3.301-49.169-17.43-62.135l-4.036-2.264c-22.316-11.158-49.169-3.301-62.135 17.43l-2.264 4.036-53.067 106.171-53.067-106.171c-11.855-23.711-40.688-33.322-64.399-21.466-22.316 11.158-32.142 37.354-23.337 60.166l1.871 4.233 90.933 181.865-0.032 87.005-165.434 82.731c-22.316 11.158-32.142 37.354-23.337 60.166l1.871 4.233c11.158 22.316 37.354 32.142 60.166 23.337l4.233-1.871 170.534-85.267 170.534 85.267c23.711 11.855 52.543 2.245 64.399-21.466zM527.887 704c44.183 0 80-35.817 80-80s-35.817-80-80-80c-44.183 0-80 35.817-80 80s35.817 80 80 80zM297.836 928c36.686 0 55.029-44.383 29.143-70.286l-62.057-62.040 71.77-75.674-67.886-67.783-71.942 75.606-61.886-62.109c-25.886-25.869-70.288-7.526-70.288 29.143v192c-0.054 22.666 18.273 41.086 40.94 41.143h192.206zM950.857 928c22.666 0.056 41.086-18.271 41.143-40.938v-192.206c0-36.686-44.383-55.029-70.286-29.143l-62.040 62.057-75.674-71.771-67.783 67.886 75.606 71.943-62.109 61.886c-25.869 25.886-7.526 70.286 29.143 70.286h192z" />
<glyph unicode="&#xe91b;" glyph-name="PlayerType-Philanthropist" d="M912 304c20.884 16.842 62.315 25.394 82.189 7.374 25.433-22.907 23.411-61.981-2.189-82.358l-254.653-203.789c-19.198-15.326-42.947-23.579-67.368-23.579l-573.979-1.648c-14.821 0-32 17.179-32 32v160c0 14.819 17.179 32 32 32h64l80.673 56.722c35.368 28.632 81.853 39.278 127.327 39.278h272c32.842 0 48-16 48-48s-21.221-48-48-48h-128c-32 0-48-16-48-48s16-48 48-48h144c24.591 0 91.789 43.585 110.821 58.911l145.179 117.089zM534.137 845.449c56.078 58.862 147.349 68.407 208.595 15.314 70.393-60.848 73.973-170.217 11.136-236.235l-216.549-227.088c-14.118-14.717-36.787-14.717-50.707 0l-216.549 227.088c-62.837 66.019-59.059 175.387 11.136 236.235 61.246 53.093 152.519 43.548 208.595-15.51l22.072-23.067 22.271 23.264zM679.849 788.224c-20.305 17.602-53.489 14.851-76.368-9.162l-91.633-95.715-91.674 95.804c-22.694 23.902-55.799 26.668-76.096 9.072-28.159-24.41-30.15-70.54-4.542-97.445l172.427-180.819 172.365 180.754c25.737 27.040 23.776 73.085-4.481 97.511z" />
<glyph unicode="&#xe91c;" glyph-name="PlayerType-Player" d="M496 960c24.95 0 45.454-19.036 47.78-43.377l0.22-4.623 0.026-84.070c60.476-6.665 117.138-25.742 169.487-57.151 24.802-14.881 32.844-47.050 17.963-71.852s-47.050-32.844-71.852-17.963c-49.988 29.993-104.674 44.907-165.080 44.907-74.598 0-122.198-30.8-122.198-122.198 0-32.503 56.833-71.585 130.802-78.228 142.912-12.835 253.248-91.074 253.248-218.538 0-117.296-60.025-183.694-154.855-203.363-19.422-4.028-36.788-5.866-57.492-6.412l-0.048-113.134c0-26.51-21.49-48-48-48s-48 21.49-48 48v0l-0.001 117.859c-32.843 5.808-70.21 17.287-112.56 34.227-26.855 10.742-39.917 41.22-29.175 68.075s41.22 39.917 68.075 29.175c52.548-21.019 93.143-31.168 120.205-31.168l4.158-0.021c2.396-0.028 5.495-0.092 12.085-0.233 31.359-0.671 49.917 0.133 69.483 4.191 48.28 10.014 71.385 35.572 71.385 100.805 0 61.406-62.381 105.641-157.876 114.217-121.236 10.888-226.174 83.049-226.174 182.549 0 140.695 77.367 208.662 180.39 223.683l0.005 84.642c0 26.51 21.49 48 48 48z" />
<glyph unicode="&#xe91d;" glyph-name="PlayerType-Socialiser" d="M176.488 693.022c38.845-13.693 38.845-13.693 44.54-27.344 3.122-7.704 3.122-7.704 3.986-11.602 0.506-2.309 0.855-4.516 1.125-6.871l201.76-144.145c21.572-15.408 26.568-45.387 11.16-66.959-14.502-20.303-41.91-25.923-63.069-13.668l-3.889 2.508-145.328 103.828c-0.526-32.106-1.342-70.797-2.446-116.102l-0.207-7.099 94.326-361.452c6.298-24.142-6.946-48.788-29.912-57.182l-4.418-1.379c-24.142-6.298-48.788 6.946-57.182 29.912l-1.379 4.418-40.186 153.908-26.078-150.016c-4.275-24.581-26.543-41.52-50.923-39.641l-4.592 0.576c-24.581 4.275-41.52 26.543-39.641 50.923l0.576 4.592 63.393 364.51c2.26 91.158 3.389 156.345 3.389 195.341l-0.048 6.056c-3.264 8.161-4.25 17.123-2.787 25.847-0.883 5.247-0.908 10.718 0.053 16.246 0.598 3.44 1.24 6.396 2.177 9.483 1.117 3.629 1.117 3.629 4.428 10.474 5.409 11.561 5.409 11.561 41.174 24.841zM847.516 693.022c35.764-13.28 35.764-13.28 41.174-24.841 3.31-6.844 3.31-6.844 4.428-10.474 0.937-3.087 1.579-6.043 2.177-9.483 0.961-5.528 0.936-10.999 0.053-16.246 1.464-8.724 0.477-17.686-2.787-25.847l-0.048-6.056c0-38.996 1.129-104.183 3.389-195.341l63.393-364.51 0.576-4.592c1.879-24.379-15.060-46.648-39.641-50.923l-4.592-0.576c-24.379-1.879-46.648 15.060-50.923 39.641l-26.078 150.016-40.186-153.908-1.379-4.418c-8.395-22.966-33.040-36.21-57.182-29.912l-4.418 1.379c-22.966 8.395-36.21 33.040-29.912 57.182l94.326 361.452-0.207 7.099c-1.104 45.305-1.92 83.996-2.446 116.102l-145.328-103.828-3.889-2.508c-21.159-12.255-48.567-6.635-63.069 13.668-15.408 21.572-10.412 51.55 11.16 66.959l201.76 144.145c0.27 2.355 0.619 4.562 1.125 6.871 0.865 3.898 0.865 3.898 3.986 11.602 5.695 13.651 5.695 13.651 44.54 27.344zM192 896c53.019 0 96-42.981 96-96s-42.981-96-96-96c-53.019 0-96 42.981-96 96s42.981 96 96 96zM832.004 896c53.019 0 96-42.981 96-96s-42.981-96-96-96c-53.019 0-96 42.981-96 96s42.981 96 96 96z" />
<glyph unicode="&#xe91e;" glyph-name="Menu" d="M128 64h768v128h-768v-128zM128 384h768v128h-768v-128zM128 832v-128h768v128h-768z" />
<glyph unicode="&#xe91f;" glyph-name="BigFive-Agreeableness" d="M1024 352h-224l-216.96 212.4 20 18.050c10.4 9.5 11.2 25.492 1.6 35.783l-17.44 18.525c-9.6 10.292-25.76 10.923-36.16 1.583l-88.32-80.118c-15.2-13.773-41.12-14.882-55.36 0-14.88 15.677-13.6 39.743 1.92 53.677l86.72 76.1c11.84 10.768 32 16 48 16h112c3.36 0 45.76 2.375 48 0l64-96h256v-256zM672 240c-4.48-5.382-32-32-48-16l-32 32c-27.205-42.945-53.872-64.28-80-64.003-39.193 0.421-32 0-76.96 65.678-67.040-65.678-115.040-49.675-147.040-17.675l-112 112h-176v256h208l96 96c2.133 0.846 34.133 0.846 96 0l-42.72-36.050c-47.040-42.592-49.76-114.477-7.040-160.393 23.68-25.65 97.92-65.233 162.4-6.965l13.12 11.875 162.24-176.467c3.627-2.956 8.96-18.956 16-48l-32-48zM832 704l-77.44 70.192c-16.856 16.532-39.627 25.808-63.36 25.808h-362.88c-23.68 0-46.56-9.342-63.36-25.808l-72.96-70.192h-192v-448h144l135.36-120.965c49.44-39.743 118.080-40.692 168.96-6.017 20-17.102 55.52-33.018 79.68-33.018 29.12 0 74.56 19.56 96.16 45.843 35.36-13.777 111.84 34.157 111.84 82.157l64 32h224v448h-192z" />
<glyph unicode="&#xe920;" glyph-name="BigFive-Conscientiousness" d="M624 448c44.183 0 80-35.817 80-80 0-28.719-15.133-53.903-37.859-68.014l5.859 1.491-0.011-22.949 106.424-23.671c24.356-5.412 40.242-28.444 37.233-52.709l-0.788-4.56c-5.751-25.878-31.391-42.195-57.27-36.444l-85.599 19.017v-39.424l57.687-100.921c12.379-21.663 6.023-48.91-13.956-63.006l-3.905-2.484c-21.663-12.379-48.91-6.023-63.006 13.956l-2.484 3.905-23.808 41.607-19.584-39.258c-11.855-23.711-40.688-33.322-64.399-21.466-22.316 11.158-32.142 37.354-23.337 60.166l1.871 4.233 58.933 117.865v23.191l-68.358-17.090c-25.718-6.43-51.779 9.207-58.209 34.925-6.051 24.205 7.444 48.714 30.494 56.874l4.431 1.334 134.413 33.601c-41.746 2.693-74.772 37.406-74.772 79.832 0 44.183 35.817 80 80 80zM337.789 671.979l1.531-0.083c0.916-0.064 1.834-0.155 2.753-0.274 0.242-0.030 0.466-0.060 0.69-0.093l3.673-0.674 2.375-0.596 0.839-0.226 1.528-0.497 288-96c25.149-8.383 38.741-35.566 30.358-60.716-7.89-23.67-32.433-37.102-56.261-31.611l-4.455 1.253-241.41 80.498-46.25-150.405 62.236-388.973c4.188-26.177-13.637-50.792-39.814-54.981-24.637-3.942-47.891 11.616-54.033 35.284l-0.947 4.53-30.376 189.873-68.891-198.059c-8.197-23.565-32.913-36.678-56.667-30.878l-4.438 1.311c-25.038 8.709-38.276 36.067-29.567 61.105l127.531 366.713-3.356 20.961 67.284 218.673c0.074 0.241 0.15 0.481 0.228 0.72l0.113 0.343c0.153 0.46 0.313 0.917 0.479 1.369 0.314 0.861 0.653 1.709 1.013 2.543l0.719 1.582c0.417 0.881 0.863 1.749 1.334 2.599 0.21 0.377 0.419 0.743 0.632 1.106 0.53 0.904 1.090 1.787 1.676 2.647 0.368 0.54 0.752 1.080 1.146 1.611 0.458 0.617 0.929 1.219 1.412 1.808 0.432 0.527 0.875 1.044 1.329 1.551l0.832 0.905 0.849 0.878c0.486 0.492 0.995 0.983 1.514 1.463l1.604 1.415c0.515 0.436 1.023 0.846 1.538 1.246 0.66 0.511 1.34 1.010 2.032 1.491l0.752 0.513 0.767 0.502c0.675 0.432 1.361 0.847 2.057 1.245l1.179 0.653 1.19 0.616c0.383 0.192 0.781 0.384 1.182 0.572 0.994 0.463 1.991 0.888 3.002 1.28 0.373 0.145 0.749 0.285 1.127 0.421 0.848 0.303 1.712 0.586 2.583 0.844l1.657 0.46 1.97 0.462c0.89 0.191 1.777 0.353 2.67 0.491l1.271 0.178c0.94 0.12 1.888 0.212 2.84 0.275l1.658 0.081 3.311-0.010zM352 896c53.019 0 96-42.981 96-96s-42.981-96-96-96c-53.019 0-96 42.981-96 96s42.981 96 96 96z" />
<glyph unicode="&#xe921;" glyph-name="BigFive-Extraversion" d="M864 256c0-14.882-17.118-32-32-32h-256l-128-96v96h-256c-14.882 0-32 17.118-32 32 0 9.921 0 169.921 0 480 0 14.882 17.118 32 32 32h640c14.882 0 32-17.118 32-32v-480zM176 864c-61.775 0-112-50.225-112-112v-512c0-61.775 50.225-112 112-112h176v-144c0-12.425 2.15-16 13-16 2.8 0 78.467 53.333 227 160h256c61.775 0 112 50.225 112 112v512c0 61.775-50.225 112-112 112h-672z" />
<glyph unicode="&#xe922;" glyph-name="BigFive-Neuroticism" d="M304.076 960c-24 0-44.4-17.8-47.6-41.6l-118.888-512c-3.8-28.8 18.6-54.4 47.6-54.4h237.4l-37.312-357c-7.2-30.4 16-59 46.6-59 16.8 0 32.8 8.8 41.6 24l374.724 608c18.6 31.8-4.4 72-41.4 72h-230.8l62.476 259.6c8 30.4-15 60.4-46.4 60.4h-288zM432 544h291.376l-211.376-336 32 240h-304.016l106.088 416h179.682l-93.754-320z" />
<glyph unicode="&#xe923;" glyph-name="Checkmark" d="M358.059 109.827l-312 306.821c-18.744 18.433-18.744 48.321 0 66.756l67.881 66.756c18.744 18.435 49.138 18.435 67.883 0l210.178-206.687 450.179 442.704c18.744 18.433 49.138 18.433 67.883 0l67.881-66.756c18.744-18.433 18.744-48.321 0-66.756l-552.001-542.839c-18.746-18.433-49.138-18.433-67.883 0.002z" />
<glyph unicode="&#xe924;" glyph-name="BigFive--Openness" d="M202.474 789.972l4.148-2.053 290.44-171.871 301.667 170.6c23.174 12.874 52.396 4.525 65.27-18.649s4.525-52.396-18.649-65.27l-301.36-170.973v-165.868l190.961-315.674c14.156-22.414 7.462-52.059-14.952-66.215s-52.059-7.462-66.215 14.952l-159.923 263.528-173.862-262.48c-13.323-21.095-40.367-28.266-62.189-17.235l-4.026 2.283c-21.095 13.323-28.266 40.367-17.235 62.189l2.283 4.026 209.167 314.625v165.868l-288 172.243c-23.174 12.874-31.523 42.097-18.649 65.27 12.117 21.81 38.715 30.489 61.123 20.702zM496 896c53.019 0 96-42.981 96-96s-42.981-96-96-96c-53.019 0-96 42.981-96 96s42.981 96 96 96z" />
</font>
</defs>
</svg>
