<?xml version="1.0" encoding="UTF-8" standalone="no"?><!DOCTYPE svg PUBLIC "-//W3C//DTD SVG 1.1//EN" "http://www.w3.org/Graphics/SVG/1.1/DTD/svg11.dtd"><svg width="100%" height="100%" viewBox="0 0 4267 4267" version="1.1" xmlns="http://www.w3.org/2000/svg" xmlns:xlink="http://www.w3.org/1999/xlink" xml:space="preserve" xmlns:serif="http://www.serif.com/" style="fill-rule:evenodd;clip-rule:evenodd;stroke-miterlimit:10;"><g id="Layer-1" serif:id="Layer 1"><text x="353.784px" y="3538.14px" style="font-family:'MyriadPro-Semibold', 'Myriad Pro', sans-serif;font-weight:600;font-size:876.787px;fill:#392f5b;">h<tspan x="837.77px " y="3538.14px ">c</tspan></text><path d="M411.652,3538.14l107.845,0l0,-256.021c0,-11.4 0.875,-22.796 4.384,-32.442c12.275,-32.441 42.087,-60.5 84.171,-60.5c59.62,0 82.421,47.346 82.421,108.725l0,240.238l107.841,0l0,-251.642c0,-136.775 -76.279,-185 -149.054,-185c-27.179,0 -52.608,7.017 -74.525,19.292c-21.921,11.396 -40.333,28.054 -53.483,48.221l-1.755,0l0,-253.388l-107.845,0l0,622.517Z" style="fill:none;fill-rule:nonzero;stroke:#4d4d4d;stroke-width:4.17px;"/><path d="M1192.95,3445.2c-21.041,8.766 -48.225,16.658 -85.05,16.658c-73.646,0 -130.641,-49.975 -130.641,-137.654c-0.875,-78.038 48.225,-138.534 130.641,-138.534c38.579,0 64.009,7.892 81.542,16.663l19.292,-81.542c-24.55,-10.525 -64.884,-19.292 -104.338,-19.292c-149.933,0 -237.608,99.08 -237.608,227.088c0,132.396 86.8,218.321 220.071,218.321c53.483,0 98.2,-11.396 120.995,-21.921l-14.904,-79.788Z" style="fill:none;fill-rule:nonzero;stroke:#4d4d4d;stroke-width:4.17px;"/><g transform="matrix(4.16667,0,0,4.16667,0,0)"><text x="289.735px" y="849.154px" style="font-family:'MyriadPro-Semibold', 'Myriad Pro', sans-serif;font-weight:600;font-size:210.429px;fill:#392f5b;">i</text><text x="343.605px" y="849.154px" style="font-family:'MyriadPro-Regular', 'Myriad Pro', sans-serif;font-size:210.429px;fill:#e98300;">games</text></g><path d="M1372.94,3538.14l0,-426.996l-107.846,0l0,426.996l107.846,0Zm-53.483,-604.983c-35.95,0 -60.496,25.425 -60.496,58.745c0,31.567 23.671,57.867 59.621,57.867c37.7,0 61.375,-26.3 61.375,-57.867c-0.88,-33.32 -23.675,-58.745 -60.5,-58.745Z" style="fill:none;fill-rule:nonzero;stroke:#4d4d4d;stroke-width:4.17px;"/><path d="M1858.68,3229.51c0,-50.85 0.875,-85.925 3.504,-115.733l-68.387,0l-2.629,64.004l-1.754,0c-19.288,-35.071 -58.746,-72.775 -132.396,-72.775c-98.2,0 -192.017,80.667 -192.017,224.459c0,117.491 75.404,206.92 180.621,206.92c65.758,0 112.225,-31.562 135.021,-71.02l1.754,0l0,46.475c0,107.845 -57.867,149.05 -136.775,149.05c-52.608,0 -96.45,-15.784 -124.504,-34.196l-19.292,59.625c34.196,22.791 90.308,35.071 141.163,35.071c53.483,0 113.108,-13.15 155.191,-50.855c40.334,-37.7 60.5,-96.445 60.5,-194.645l0,-246.38Zm-77.158,128.013c0,13.15 -1.754,28.058 -6.138,41.208c-15.783,49.1 -58.745,78.913 -106.966,78.913c-82.417,0 -125.379,-69.267 -125.379,-152.559c0,-98.204 52.604,-160.454 126.254,-160.454c56.991,0 93.816,36.825 107.846,82.417c3.504,9.642 4.383,21.042 4.383,34.196l0,76.279Z" style="fill:none;fill-rule:nonzero;stroke:#e98300;stroke-width:4.17px;stroke-miterlimit:4;"/><path d="M2283.91,3277.74c0,-84.171 -31.567,-172.729 -161.329,-172.729c-53.484,0 -105.217,14.904 -140.288,36.825l17.538,51.733c29.812,-20.166 71.021,-31.566 111.35,-31.566c86.804,-0.875 96.446,63.129 96.446,97.325l0,8.766c-163.959,-0.875 -255.142,55.238 -255.142,157.825c0,61.371 43.837,121.871 129.763,121.871c60.499,0 106.091,-29.812 129.766,-63.129l2.629,0l6.138,53.483l69.266,0c-4.383,-28.933 -6.137,-64.879 -6.137,-101.708l0,-158.696Zm-74.529,117.488c0,7.016 -0.875,15.783 -3.508,24.55c-12.271,35.95 -48.221,71.021 -104.338,71.021c-38.575,0 -71.892,-22.796 -71.892,-73.65c0,-82.417 95.567,-97.321 179.738,-95.571l0,73.65Z" style="fill:none;fill-rule:nonzero;stroke:#e98300;stroke-width:4.17px;stroke-miterlimit:4;"/><path d="M2408.41,3538.14l75.404,0l0,-255.142c0,-13.158 1.754,-27.183 6.137,-37.704c12.275,-38.579 48.225,-77.158 95.571,-77.158c58.742,0 88.554,48.221 88.554,115.737l0,254.267l75.4,0l0,-262.158c0,-14.03 2.634,-27.18 6.142,-38.58c14.025,-36.825 47.346,-69.266 92.062,-69.266c61.375,0 92.063,48.221 92.063,130.641l0,239.363l75.404,0l0,-249.008c0,-147.3 -83.296,-184.125 -140.287,-184.125c-40.33,0 -67.513,10.52 -92.938,29.812c-17.537,13.15 -35.071,30.683 -48.225,55.238l-1.754,0c-18.413,-49.98 -62.25,-85.05 -119.242,-85.05c-71.021,0 -110.475,37.704 -134.15,78.033l-2.629,0l-3.508,-69.267l-67.513,0c1.754,35.071 3.509,70.142 3.509,114.863l0,309.504Z" style="fill:none;fill-rule:nonzero;stroke:#e98300;stroke-width:4.17px;stroke-miterlimit:4;"/><path d="M3480.72,3339.99c1.754,-8.766 2.633,-20.166 2.633,-35.95c0,-78.033 -35.95,-199.033 -175.358,-199.033c-123.629,0 -199.034,99.958 -199.034,227.967c0.001,128.012 78.038,214.812 208.675,214.812c67.513,0 114.863,-14.904 142.042,-27.179l-14.029,-55.237c-28.054,12.275 -62.25,21.92 -117.488,21.92c-78.037,0 -143.795,-42.962 -145.55,-147.3l298.109,0Zm-297.229,-55.237c6.137,-53.488 39.454,-124.508 118.366,-124.508c86.8,0 107.846,76.283 106.967,124.508l-225.333,0Z" style="fill:none;fill-rule:nonzero;stroke:#e98300;stroke-width:4.17px;stroke-miterlimit:4;"/><path d="M3549.98,3517.98c29.808,17.538 72.775,29.808 119.241,29.808c99.075,0 157.825,-52.604 157.825,-128.008c0,-63.129 -38.583,-99.954 -111.354,-127.133c-55.233,-21.921 -79.787,-37.704 -79.787,-72.775c0,-31.563 24.554,-57.871 70.141,-57.871c39.459,0 70.146,14.912 86.804,25.429l18.413,-56.112c-22.8,-14.905 -60.5,-26.305 -103.463,-26.305c-90.308,0 -146.425,56.113 -146.425,124.505c0,50.854 35.95,92.062 113.109,120.12c56.116,21.038 78.033,40.33 78.033,77.155c0,35.95 -26.304,63.133 -81.542,63.133c-38.579,0 -78.908,-15.783 -102.583,-29.817l-18.412,57.871Z" style="fill:none;fill-rule:nonzero;stroke:#e98300;stroke-width:4.17px;stroke-miterlimit:4;"/><path d="M2117.56,958.962c215.854,0 312.675,-10.383 439.462,-47.317c144.742,-42.175 157.667,-134.379 245.088,-158.45c87.425,-24.07 473.833,11.48 668.708,227.996c131.446,146.042 37.388,169.992 82.788,238.55c45.395,68.567 290.529,768.534 272.358,1042.8c-18.146,274.267 -321.475,374.017 -400.179,351.567c-149.842,-42.754 -235.754,-303.325 -514.409,-447.754c-231.479,-119.975 -548.308,-147.892 -793.816,-147.892l-0.309,0c-245.508,0 -562.341,27.925 -793.812,147.904c-278.646,144.425 -364.571,405.317 -514.413,448.063c-78.7,22.462 -382.029,-77.442 -400.183,-351.713c-18.158,-274.271 226.963,-974.296 272.358,-1042.86c45.405,-68.559 -48.658,-92.525 82.8,-238.575c194.867,-216.517 581.284,-252.038 668.705,-227.967c87.425,24.067 100.337,116.179 245.091,158.338c126.775,36.937 223.604,47.312 439.454,47.312l0.309,0Z" style="fill:#392f5b;fill-rule:nonzero;"/><path d="M3051.72,1570.83l633.009,0c-9.617,-29.166 -19.221,-58.333 -28.629,-91.666l-544.85,0l-160.734,-200.813l-160.487,200.813l-379.838,0l-81.983,200.808l-305.008,-645.6l-323.346,579.654l-101.034,-134.862l-477.629,0l-166.554,-108.854l-166.617,108.854l-209.283,0c-9.408,33.333 -19.012,62.5 -28.637,91.666l276.67,0l127.846,-83.537l127.825,83.537l455.017,0l177.062,233.884l300.363,-539.759l320.367,679.246l153.75,-373.371l360.604,0l100.987,-126.354l101.129,126.354Z" style="fill:#e98300;fill-rule:nonzero;"/></g></svg>